<svg width="164" height="155" viewBox="0 0 164 155" fill="none" xmlns="http://www.w3.org/2000/svg">
<path d="M23.2 81.6551C18.52 83.0551 15.86 87.9951 17.26 92.6751L26.71 124.165C28.11 128.845 33.05 131.505 37.73 130.105C42.41 128.705 45.07 123.765 43.67 119.085L34.22 87.5951C32.82 82.9151 27.89 80.2551 23.2 81.6551Z" fill="#03A2A0"/>
<path d="M41.6717 119.685L38.5517 109.295C33.3317 104.765 25.0117 92.1651 21.6917 84.7351C19.4917 86.3851 18.4317 89.2951 19.2717 92.0751L28.7217 123.565C29.4317 125.935 31.3417 127.625 33.5917 128.185L41.8017 123.055C42.0417 121.955 42.0017 120.805 41.6717 119.685Z" fill="#0E7E7C"/>
<path d="M35.2018 132.575C30.4918 132.575 26.1318 129.505 24.7118 124.775L15.2618 93.2851C13.5318 87.5051 16.8218 81.3851 22.6018 79.6551C25.4018 78.8151 28.3618 79.1151 30.9418 80.5051C33.5118 81.8951 35.3918 84.1951 36.2318 86.9951L45.6818 118.485C46.5218 121.285 46.2218 124.245 44.8318 126.825C43.4418 129.395 41.1418 131.275 38.3418 132.115C37.2918 132.425 36.2418 132.575 35.2018 132.575ZM23.8118 83.6651C20.2418 84.7351 18.2118 88.5151 19.2818 92.0851L28.7318 123.575C29.8018 127.145 33.5818 129.185 37.1518 128.105C38.8818 127.585 40.3018 126.425 41.1618 124.835C42.0218 123.245 42.2018 121.415 41.6818 119.685L32.2318 88.1951C31.7118 86.4651 30.5518 85.0451 28.9618 84.1851C27.3618 83.3251 25.5418 83.1451 23.8118 83.6651Z" fill="#147775"/>
<path d="M155.262 104.305C150.832 105.175 139.852 109.805 116.602 107.225C116.242 106.995 115.872 106.765 115.482 106.545C105.702 100.895 93.5019 101.495 83.9619 107.545L78.7819 110.825L56.5919 111.625C50.4319 111.535 47.6419 115.845 47.5919 119.275C47.5819 120.265 47.7019 121.215 47.9519 122.105L34.1419 115.725L18.2419 82.9451C16.6319 79.4151 11.9219 77.1851 6.96194 79.4651C2.29193 81.6051 1.12193 86.0851 2.83193 89.8851L20.3819 128.225L57.4819 143.915C65.6219 148.575 73.4019 152.665 83.2419 152.665H101.142C106.622 152.665 112.072 152.025 117.402 150.775L117.702 150.705C127.552 148.385 137.732 148.065 147.772 149.345C149.982 149.625 152.442 150.205 154.412 150.665C163.002 152.645 163.812 102.625 155.262 104.305Z" fill="#03A2A0"/>
<path d="M83.2406 152.645H101.141C106.621 152.645 112.071 152.005 117.401 150.755L117.701 150.685C127.551 148.365 137.731 148.045 147.771 149.325C149.981 149.605 152.441 150.185 154.411 150.645C157.021 151.255 158.911 146.535 160.041 139.735C159.091 139.725 158.111 139.815 157.131 140.025C146.131 142.385 137.481 135.305 109.981 141.595C88.2106 146.575 78.2506 147.115 48.1406 138.545L57.4906 143.895C65.6306 148.555 73.4106 152.645 83.2406 152.645Z" fill="#098381"/>
<path d="M21.1833 103.135C24.2133 110.935 28.9233 112.515 32.5333 112.375L18.2533 82.9351C16.6433 79.4051 11.9333 77.1751 6.97327 79.4551C5.18327 80.2751 3.91328 81.4451 3.11328 82.7751V87.4251C10.1833 81.9151 15.6833 88.9851 21.1833 103.135Z" fill="#2CB4AE"/>
<path d="M155.261 104.305C150.831 105.175 139.851 109.805 116.601 107.225C116.241 106.995 115.871 106.765 115.481 106.545C105.701 100.895 93.5011 101.495 83.9611 107.545L78.7811 110.825L56.5911 111.615C52.2411 111.555 49.5811 113.685 48.3711 116.155L49.4711 121.995C50.2611 116.495 67.5411 118.855 77.7611 118.855C87.9811 118.855 101.341 117.285 124.131 118.065C145.141 118.785 155.461 115.525 161.251 131.015C161.531 117.375 159.601 103.455 155.261 104.305Z" fill="#2CB4AE"/>
<path d="M101.152 154.735H83.2516C73.0516 154.735 65.0816 150.645 56.4516 145.705L19.3516 130.015C18.9716 129.795 18.6716 129.465 18.4916 129.065L0.941558 90.7251C-1.40844 85.5151 0.761561 79.9751 6.10156 77.5251C12.3016 74.6851 18.1216 77.5951 20.1616 82.0451L35.7016 114.125L45.5316 118.665C45.7016 116.455 46.7016 114.285 48.3116 112.655C49.7516 111.195 52.3916 109.415 56.6216 109.525L78.1316 108.755L82.8316 105.775C93.2816 99.1551 106.182 98.7551 116.522 104.725C116.792 104.875 117.052 105.035 117.302 105.195C136.122 107.215 146.462 104.445 152.042 102.945C153.172 102.645 154.062 102.405 154.842 102.245C155.882 102.035 157.892 102.075 159.572 104.655C164.952 112.945 164.392 142.415 158.752 150.445C156.982 152.955 154.972 152.925 153.922 152.675C152.112 152.245 149.632 151.675 147.492 151.395C137.302 150.095 127.442 150.535 118.172 152.715L117.882 152.785C112.412 154.085 106.772 154.735 101.152 154.735ZM22.0116 126.715L58.5316 142.065C66.6316 146.705 74.0816 150.545 83.2416 150.545H101.142C106.452 150.545 111.752 149.925 116.922 148.705L117.222 148.635C126.982 146.335 137.352 145.875 148.032 147.235C150.392 147.535 152.992 148.145 154.882 148.595C156.132 148.055 158.792 146.335 159.142 131.265C159.512 115.195 156.932 106.985 155.532 106.345C155.012 106.485 154.182 106.705 153.132 106.985C147.242 108.565 136.272 111.515 116.362 109.295C116.042 109.255 115.732 109.145 115.452 108.975C115.122 108.765 114.782 108.555 114.422 108.345C105.442 103.155 94.1916 103.525 85.0716 109.305L79.8916 112.585C79.5816 112.785 79.2216 112.895 78.8416 112.905L56.6516 113.695C54.3416 113.705 52.5216 114.315 51.2816 115.575C50.2916 116.575 49.6916 117.955 49.6816 119.275C49.6716 120.005 49.7416 120.675 49.8916 121.295C49.9516 121.445 49.9916 121.595 50.0216 121.755C50.8016 124.235 52.9216 125.675 56.0116 125.715L76.0416 125.995H98.0616C99.2216 125.995 100.152 126.935 100.152 128.085C100.152 129.245 99.2116 130.175 98.0616 130.175H76.0116L55.9516 129.895C51.2116 129.825 47.6716 127.415 46.2216 123.575L33.2616 117.585C32.8216 117.385 32.4716 117.035 32.2516 116.595L16.3516 83.8151C15.1516 81.1951 11.6516 79.5751 7.82156 81.3251C4.07156 83.0351 3.57157 86.4051 4.73157 88.9751L22.0116 126.715Z" fill="#147775"/>
<path d="M55.7508 82.2651C55.7408 81.9751 55.7208 81.7151 55.6908 81.4951C55.4608 79.5951 54.6408 77.7851 53.4508 76.3051C51.2508 73.5651 47.8408 71.7251 44.4108 71.0951C43.4408 70.9151 43.3808 71.6351 43.2908 72.4551C42.8808 76.1851 43.9108 80.1051 46.3308 82.9951C47.4108 84.2851 48.5308 85.3951 50.1508 85.9651C51.3008 86.3651 53.1608 86.6951 54.3308 86.1551C55.5508 85.5951 55.7908 83.6551 55.7508 82.2651Z" fill="#FFD258"/>
<path d="M115.872 88.1251C115.892 87.2651 115.922 86.4151 116.012 85.5551C116.242 83.3951 116.682 81.2951 117.322 79.2251C117.672 78.0751 118.132 76.9651 118.702 75.9051C119.052 75.2651 119.442 74.6051 119.882 74.0051C120.332 73.3851 120.882 72.8951 121.392 72.3451C121.662 72.0551 121.932 71.7751 122.222 71.5151C122.712 71.0751 123.322 70.4851 123.942 70.2351C124.372 69.9851 124.842 69.7951 125.262 69.5251C125.502 69.3651 125.762 69.2351 126.032 69.1151C126.122 69.0751 126.212 69.0351 126.292 68.9951C127.162 68.5251 128.072 68.1651 128.992 67.8151C129.162 67.7451 129.342 67.6851 129.512 67.6151C129.812 67.5051 130.122 67.3851 130.432 67.2851C131.352 66.9651 132.282 66.6751 133.242 66.4451C133.342 66.4151 133.432 66.3851 133.532 66.3551C133.562 66.3451 133.592 66.3351 133.622 66.3151C133.912 66.1951 134.022 66.2651 134.012 66.5951C133.992 67.4451 133.962 68.2951 133.872 69.1351C133.642 71.2751 133.192 73.3551 132.552 75.4051C131.702 78.1251 130.242 80.4651 128.232 82.4751C126.992 83.7151 125.532 84.7051 123.962 85.4851C123.902 85.5151 123.832 85.5451 123.772 85.5751C123.682 85.6151 123.602 85.6551 123.512 85.6951C122.652 86.1651 121.752 86.5351 120.852 86.8851C120.682 86.9551 120.512 87.0151 120.332 87.0851C120.032 87.2051 119.732 87.3151 119.422 87.4251C118.512 87.7551 117.592 88.0451 116.642 88.2651C116.542 88.2951 116.452 88.3251 116.352 88.3551C116.322 88.3651 116.292 88.3751 116.262 88.3951C115.962 88.5351 115.862 88.4651 115.872 88.1251Z" fill="#E62E38"/>
<path d="M132.283 67.8551C131.553 68.9151 130.733 69.8951 129.883 70.8651C129.003 71.8751 128.043 72.8151 127.093 73.7751C127.043 73.8251 126.993 73.9051 126.903 73.8651C126.823 73.8251 126.813 73.7451 126.813 73.6651C126.803 73.3851 126.783 73.1051 126.763 72.8151C126.673 71.5951 126.483 70.3751 126.293 69.1651C127.133 68.7151 128.013 68.3651 128.893 68.0251C129.063 67.9651 129.233 67.8951 129.393 67.8351C130.573 67.3951 131.763 66.9951 132.983 66.7051C132.813 67.1351 132.533 67.4951 132.283 67.8551Z" fill="#E63A42"/>
<path d="M125.424 69.8551C125.494 70.3351 125.564 70.8251 125.624 71.3051C125.744 72.3651 125.844 73.4151 125.954 74.4751C125.974 74.6551 125.964 74.8051 125.774 74.9251C125.584 75.0451 125.424 75.2251 125.244 75.3651C124.624 75.8651 123.964 76.3151 123.234 76.6451C123.064 76.7251 123.014 76.6851 122.984 76.5151C122.924 76.2051 122.824 75.9051 122.744 75.6051C122.444 74.4551 122.164 73.3151 121.754 72.1951C122.064 71.8451 122.394 71.5351 122.744 71.2551C123.524 70.6351 124.394 70.1451 125.294 69.6951C125.364 69.7151 125.414 69.7651 125.424 69.8551Z" fill="#E63A42"/>
<path d="M121.124 73.2352C121.444 74.4552 121.754 75.6752 122.094 76.8952C122.154 77.1152 122.084 77.1752 121.904 77.2452C121.444 77.4152 121.033 77.6552 120.813 78.1252C120.733 78.2852 120.574 78.3652 120.404 78.4252C120.074 78.5352 119.734 78.6052 119.434 78.8052C119.064 79.0552 119.023 79.1552 119.133 79.5952C118.963 79.7052 118.853 79.6552 118.783 79.4752C118.703 79.2952 118.623 79.1152 118.513 78.9452C118.393 78.7652 118.443 78.6352 118.573 78.4852C118.863 78.1452 119.153 77.7952 119.383 77.4152C119.983 76.4152 120.323 75.3252 120.583 74.2052C120.633 73.9952 120.683 73.7952 120.743 73.5952C120.793 73.4452 120.853 73.3052 120.943 73.1652C120.973 73.1152 121.003 73.0752 121.033 73.0352C121.103 73.0852 121.104 73.1652 121.124 73.2352Z" fill="#E63A42"/>
<path d="M116.472 78.2651C116.742 77.5151 117.062 76.7851 117.432 76.0751C117.642 75.6751 117.892 75.3151 118.142 74.9351C118.412 74.5151 118.662 73.9951 118.992 73.6251C119.332 73.2351 119.582 72.7551 119.892 72.3451C120.252 71.8851 120.632 71.4351 121.032 71.0151C121.622 70.3951 122.392 69.9451 123.122 69.4851C123.912 68.9851 124.722 68.5251 125.552 68.1051C127.122 67.3051 128.752 66.6551 130.422 66.0951C131.262 65.8151 132.122 65.5651 132.982 65.3351C133.402 65.2251 133.822 65.1151 134.242 65.0151C134.552 64.9351 135.052 64.6951 135.062 65.2051C135.082 67.2951 134.932 69.3851 134.572 71.4451C134.232 73.3951 133.772 75.4051 133.022 77.2351C132.322 78.9451 131.282 80.4251 130.282 81.9551C129.452 83.2251 128.122 84.2551 126.902 85.1151C126.782 85.2051 126.662 85.2851 126.532 85.3651C123.112 87.5551 119.222 88.8251 115.302 89.7751C115.222 89.7951 115.132 89.8151 115.052 89.8351C114.992 89.8451 114.932 89.8651 114.872 89.8451C114.642 89.7651 114.762 88.7751 114.762 88.5651C114.762 88.0651 114.782 87.5551 114.802 87.0551C114.852 86.0551 114.952 85.0551 115.102 84.0651C115.382 82.2151 115.742 80.3751 116.352 78.6151C116.392 78.5051 116.432 78.3851 116.472 78.2651ZM116.452 88.1551C116.482 88.1451 116.512 88.1351 116.542 88.1251C118.402 87.4851 120.302 87.0251 122.122 86.2451C123.932 85.4751 125.522 84.4651 127.032 83.2151C129.552 81.1151 131.332 78.5051 132.312 75.3651C132.932 73.3951 133.362 71.3751 133.582 69.3251C133.672 68.5051 133.702 67.6951 133.722 66.8751C133.732 66.3651 133.272 66.6251 132.942 66.7151C132.462 66.8451 131.992 66.9751 131.522 67.1251C129.812 67.6551 128.152 68.3551 126.512 69.0751C125.402 69.5651 124.302 70.1151 123.312 70.8151C121.762 71.8951 120.532 73.5851 119.492 75.1451C117.502 78.1651 116.592 81.8951 116.212 85.4451C116.122 86.2651 116.092 87.0751 116.072 87.8951C116.072 88.2051 116.172 88.2751 116.452 88.1551Z" fill="#4F2E15"/>
<path d="M145.903 73.6451C146.103 74.1051 144.623 79.9451 139.833 82.4651C135.043 84.9851 126.523 83.6151 126.523 83.6151C126.523 83.6151 129.383 78.8451 135.393 76.5451C141.413 74.2351 145.903 73.6451 145.903 73.6451Z" fill="#F4951E"/>
<path d="M135.393 76.5351C140.093 74.7351 143.853 73.9851 145.283 73.7351C143.523 75.8451 137.573 80.6851 128.043 81.6351C129.463 80.0651 131.893 77.8851 135.393 76.5351Z" fill="#F6C017"/>
<path d="M133.203 76.8351C133.203 76.8351 135.263 75.9751 136.273 75.5651C138.383 74.7151 140.493 73.8451 142.713 73.2751C143.983 72.9451 145.283 72.7551 146.593 72.6451C146.883 72.6251 146.923 72.7051 146.913 72.9751C146.873 74.0551 146.623 75.0651 146.173 76.0451C145.293 77.9551 144.293 79.7751 142.843 81.3051C142.793 81.3551 142.743 81.3951 142.713 81.4451C142.633 81.5651 142.403 81.6451 142.463 81.7851C142.473 81.7951 142.473 81.8051 142.483 81.8151C142.423 81.8151 142.353 81.8051 142.283 81.8051C140.103 83.9051 132.463 85.7151 125.043 84.2151C124.923 83.7551 127.643 80.0851 132.943 76.9951C133.033 76.9351 133.113 76.8851 133.203 76.8351ZM127.233 83.4751C127.403 83.6851 128.033 83.6051 128.263 83.6051C128.703 83.6151 129.153 83.6151 129.593 83.6151C131.853 83.5851 134.053 83.2951 136.283 82.9351C137.143 82.7951 137.983 82.5351 138.813 82.2951C139.553 82.0751 140.293 81.8251 140.933 81.3951C141.643 80.9151 142.143 80.2251 142.653 79.5551C143.273 78.7351 143.823 77.8651 144.303 76.9451C144.763 76.0651 145.143 75.1551 145.503 74.2351C145.543 74.1251 145.543 74.0351 145.383 74.0751C144.603 74.2451 143.813 74.3351 143.033 74.5251C141.253 74.9651 139.553 75.7051 137.843 76.3851C136.683 76.8551 135.503 77.2651 134.383 77.8251C133.233 78.3951 132.123 79.0651 131.083 79.8151C130.113 80.5151 129.193 81.2451 128.333 82.0751C128.033 82.3651 127.743 82.6651 127.483 82.9951C127.393 83.1051 127.193 83.3151 127.233 83.4751C127.233 83.4651 127.233 83.4651 127.233 83.4751Z" fill="#4F2E15"/>
<path d="M106.404 49.9251C106.244 49.7651 106.174 49.7651 106.014 49.9251C100.594 55.3551 95.1742 60.7751 89.7442 66.1951C89.6942 66.2451 89.6542 66.2851 89.6042 66.3351C89.5342 66.4051 89.4842 66.4251 89.3942 66.3351C83.9142 60.8551 78.4442 55.3751 72.9642 49.8951C72.8442 49.7751 72.7842 49.7751 72.6642 49.8951C71.5042 51.0651 70.3342 52.2251 69.1642 53.3851C67.2042 55.3351 65.2542 57.2851 63.2942 59.2451C63.0842 59.4551 63.0842 59.4551 63.2942 59.6651C71.9542 68.3251 80.6142 76.9851 89.2642 85.6451C89.3342 85.7151 89.4242 85.7651 89.4542 85.8751C89.4642 85.8751 89.4842 85.8751 89.4942 85.8751C89.5642 85.8051 89.6342 85.7351 89.7042 85.6651C91.8642 83.5051 94.0342 81.3451 96.1942 79.1851C102.714 72.6651 109.224 66.1551 115.744 59.6351C115.874 59.5051 115.884 59.4451 115.744 59.3051C112.634 56.1651 109.514 53.0451 106.404 49.9251Z" fill="#F3BB30"/>
<path d="M132.273 42.6951C129.163 39.5851 126.053 36.4851 122.953 33.3651C122.793 33.2051 122.723 33.2151 122.563 33.3651C119.853 36.0851 117.133 38.8051 114.413 41.5251C113.993 41.9451 113.583 42.3751 113.153 42.7851C113.053 42.8851 113.063 42.9151 113.153 43.0051C116.313 46.1551 119.463 49.3051 122.613 52.4651C122.743 52.5951 122.813 52.5751 122.903 52.4651C122.933 52.4251 122.973 52.3951 123.013 52.3551C126.103 49.2651 129.193 46.1751 132.273 43.0951C132.333 43.0351 132.373 42.9551 132.473 42.9351C132.473 42.9251 132.473 42.9051 132.473 42.8951C132.403 42.8251 132.333 42.7551 132.273 42.6951Z" fill="#F3BB30"/>
<path d="M65.783 42.6951C62.663 39.5851 59.553 36.4751 56.443 33.3551C56.303 33.2151 56.213 33.1951 56.063 33.3451C55.083 34.3451 54.093 35.3251 53.103 36.3151C50.973 38.4451 48.853 40.5651 46.723 42.6951C46.673 42.7451 46.623 42.8251 46.543 42.8351C46.543 42.8651 46.543 42.8951 46.543 42.9251C46.623 42.9351 46.663 42.9951 46.713 43.0451C49.833 46.1651 52.963 49.2951 56.083 52.4151C56.233 52.5651 56.293 52.5551 56.433 52.4151C59.543 49.2951 62.663 46.1751 65.793 43.0551C65.923 42.9251 65.933 42.8451 65.783 42.6951Z" fill="#F3BB30"/>
<path d="M72.6317 35.8551C72.7917 36.0151 72.8617 35.9951 73.0017 35.8451C78.4117 30.4251 83.8217 25.0151 89.2317 19.6051C89.5217 19.3151 89.4617 19.3151 89.7517 19.5951C95.1717 25.0151 100.592 30.4251 106.002 35.8551C106.162 36.0151 106.242 35.9951 106.392 35.8451C108.992 33.2351 111.592 30.6351 114.192 28.0351C114.712 27.5151 115.232 26.9951 115.752 26.4751C115.792 26.4351 115.852 26.3951 115.882 26.2651C115.842 26.2351 115.772 26.2051 115.722 26.1451C107.042 17.4651 98.3617 8.79512 89.6817 0.11512C89.5217 -0.0448803 89.4417 -0.0348858 89.2917 0.125114C80.6217 8.80511 71.9517 17.4751 63.2717 26.1451C63.1117 26.3051 63.1317 26.3751 63.2817 26.5151C66.4017 29.6151 69.5217 32.7351 72.6317 35.8551Z" fill="#F3BB30"/>
<path d="M89.3433 33.1751C86.1633 36.3551 82.9833 39.5351 79.8033 42.7151C79.6633 42.8551 79.6732 42.9251 79.8132 43.0651C82.9832 46.2351 86.1533 49.4051 89.3233 52.5751C89.4633 52.7151 89.5333 52.7251 89.6833 52.5751C92.8433 49.4051 96.0233 46.2351 99.1933 43.0651C99.2333 43.0251 99.2633 42.9951 99.3033 42.9551C99.3233 42.9351 99.3333 42.9151 99.3533 42.8851C99.3033 42.8351 99.2633 42.7851 99.2233 42.7451C96.0433 39.5551 92.8533 36.3751 89.6733 33.1851C89.5333 33.0551 89.4733 33.0451 89.3433 33.1751Z" fill="#F3BB30"/>
<path d="M106.404 49.9251C106.244 49.7651 106.174 49.7651 106.014 49.9251C100.594 55.3551 95.1742 60.7751 89.7442 66.1951C89.6942 66.2451 89.6542 66.2851 89.6042 66.3351C89.5342 66.4051 89.4842 66.4251 89.3942 66.3351C83.9142 60.8551 78.4442 55.3751 72.9642 49.8951C72.8442 49.7751 72.7842 49.7751 72.6642 49.8951C71.5042 51.0651 70.3342 52.2251 69.1642 53.3851C67.2042 55.3351 65.2542 57.2851 63.2942 59.2451C63.0842 59.4551 63.0842 59.4551 63.2942 59.6651C63.7042 60.0751 64.1142 60.4851 64.5242 60.8951C65.5942 59.8251 66.6642 58.7551 67.7342 57.6851C68.9042 56.5251 70.0642 55.3651 71.2342 54.1951C71.3542 54.0751 71.4142 54.0751 71.5342 54.1951C77.0142 59.6751 82.4842 65.1551 87.9642 70.6351C88.0542 70.7251 88.1042 70.7151 88.1742 70.6351C88.2142 70.5851 88.2642 70.5451 88.3142 70.4951C93.7342 65.0751 99.1642 59.6551 104.584 54.2251C104.744 54.0651 104.814 54.0651 104.974 54.2251C107.664 56.9251 110.364 59.6151 113.064 62.3151C113.964 61.4151 114.864 60.5151 115.754 59.6251C115.884 59.4951 115.894 59.4351 115.754 59.2951C112.634 56.1651 109.514 53.0451 106.404 49.9251Z" fill="url(#paint0_linear)"/>
<path d="M132.273 42.6951C129.163 39.5851 126.053 36.4851 122.953 33.3651C122.793 33.2051 122.723 33.2151 122.563 33.3651C119.853 36.0851 117.133 38.8051 114.413 41.5251C113.993 41.9451 113.583 42.3751 113.153 42.7851C113.053 42.8851 113.063 42.9151 113.153 43.0051C113.593 43.4451 114.033 43.8851 114.473 44.3351C116.693 42.1151 118.913 39.8951 121.133 37.6751C121.283 37.5251 121.363 37.5151 121.523 37.6751C124.213 40.3751 126.913 43.0751 129.613 45.7751C130.503 44.8851 131.393 43.9951 132.273 43.1151C132.333 43.0551 132.373 42.9751 132.473 42.9551C132.473 42.9451 132.473 42.9251 132.473 42.9151C132.403 42.8251 132.333 42.7551 132.273 42.6951Z" fill="url(#paint1_linear)"/>
<path d="M54.633 37.6451C54.783 37.4951 54.863 37.5051 55.013 37.6551C57.713 40.3551 60.403 43.0551 63.113 45.7451C64.003 44.8551 64.893 43.9651 65.783 43.0751C65.923 42.9351 65.933 42.8551 65.783 42.7051C62.663 39.5951 59.553 36.4851 56.443 33.3651C56.303 33.2251 56.213 33.2051 56.063 33.3551C55.083 34.3551 54.093 35.3351 53.103 36.3251C50.973 38.4551 48.853 40.5751 46.723 42.7051C46.673 42.7551 46.623 42.8351 46.543 42.8451C46.543 42.8751 46.543 42.9051 46.543 42.9351C46.623 42.9451 46.663 43.0051 46.713 43.0551C47.133 43.4751 47.553 43.8951 47.973 44.3151C49.203 43.0851 50.443 41.8451 51.673 40.6151C52.653 39.6251 53.643 38.6351 54.633 37.6451Z" fill="url(#paint2_linear)"/>
<path d="M88.2634 4.39512C96.5234 12.6651 104.783 20.9251 113.053 29.1851C113.433 28.8051 113.823 28.4151 114.203 28.0351C114.723 27.5151 115.243 26.9951 115.763 26.4751C115.803 26.4351 115.863 26.3951 115.893 26.2651C115.853 26.2351 115.783 26.2051 115.733 26.1451C107.053 17.4651 98.3734 8.79512 89.6934 0.11512C89.5334 -0.0448803 89.4534 -0.0348858 89.3034 0.125114C80.6334 8.80511 71.9634 17.4751 63.2834 26.1451C63.1234 26.3051 63.1434 26.3751 63.2934 26.5151C63.7034 26.9251 64.1234 27.3451 64.5334 27.7551C72.3134 19.9751 80.1034 12.1951 87.8834 4.41512C88.0234 4.25512 88.1034 4.24512 88.2634 4.39512Z" fill="url(#paint3_linear)"/>
<path d="M99.2911 42.9551C99.3111 42.9351 99.3211 42.9151 99.3411 42.8851C99.2911 42.8351 99.2511 42.7851 99.2111 42.7451C96.0311 39.5551 92.8411 36.3751 89.6611 33.1851C89.5411 33.0551 89.4711 33.0551 89.3511 33.1851C86.1711 36.3651 82.9911 39.5451 79.8111 42.7251C79.6711 42.8651 79.6811 42.9351 79.8211 43.0751C80.2411 43.4951 80.6611 43.9151 81.0811 44.3351C83.3611 42.0551 85.6511 39.7751 87.9311 37.4851C88.0611 37.3551 88.1211 37.3651 88.2411 37.4851C90.9911 40.2451 93.7511 43.0051 96.5111 45.7651C97.4111 44.8651 98.3011 43.9751 99.2011 43.0751C99.2211 43.0251 99.2611 42.9951 99.2911 42.9551Z" fill="url(#paint4_linear)"/>
<path opacity="0.45" d="M146.972 57.7051H145.172C143.742 57.7051 142.582 56.5451 142.582 55.1151V53.3151C142.582 51.8851 143.742 50.7251 145.172 50.7251H146.972C148.402 50.7251 149.562 51.8851 149.562 53.3151V55.1151C149.552 56.5451 148.392 57.7051 146.972 57.7051Z" fill="#E63A42"/>
<g opacity="0.45">
<path opacity="0.45" d="M31.5119 57.2551H29.7119C28.0319 57.2551 26.6719 55.8851 26.6719 54.2151V52.4151C26.6719 50.7351 28.0419 49.3751 29.7119 49.3751H31.5119C33.1919 49.3751 34.5519 50.7451 34.5519 52.4151V54.2151C34.5619 55.8951 33.1919 57.2551 31.5119 57.2551ZM29.9119 50.9551C29.0019 50.9551 28.2519 51.6951 28.2519 52.6151V54.0151C28.2519 54.9251 28.9919 55.6751 29.9119 55.6751H31.3119C32.2219 55.6751 32.9719 54.9351 32.9719 54.0151V52.6151C32.9719 51.7051 32.2319 50.9551 31.3119 50.9551H29.9119Z" fill="#E63A42"/>
</g>
<path d="M6.63342 120.335C7.93342 123.005 8.80344 125.795 9.77344 128.385C10.7234 131.015 11.8534 133.245 13.6734 134.985C15.5334 136.705 17.9934 138.015 20.5234 139.225C23.0534 140.475 25.7434 141.535 28.3634 142.825H28.3734C28.5734 142.925 28.6534 143.165 28.5534 143.355C28.4734 143.515 28.3134 143.595 28.1434 143.575C25.2334 143.185 22.3734 142.615 19.5434 141.725C16.7334 140.805 13.8734 139.625 11.3734 137.515C11.0734 137.235 10.7834 136.945 10.5034 136.655C10.2134 136.365 9.93342 136.065 9.69342 135.725L8.95343 134.735L8.35343 133.675C8.14343 133.325 7.97344 132.965 7.83344 132.595L7.38342 131.495C7.16342 130.755 6.91342 130.025 6.75342 129.285C6.41342 127.815 6.19344 126.355 6.05344 124.895C5.91344 123.435 5.82343 121.975 5.85343 120.495C5.85343 120.275 6.04343 120.095 6.26343 120.095C6.43343 120.115 6.57342 120.205 6.63342 120.335Z" fill="#DED9B1"/>
<defs>
<linearGradient id="paint0_linear" x1="79.2382" y1="14.0684" x2="101.043" y2="110.454" gradientUnits="userSpaceOnUse">
<stop offset="0.0369" stop-color="#F6C017"/>
<stop offset="1" stop-color="#F6C017" stop-opacity="0"/>
</linearGradient>
<linearGradient id="paint1_linear" x1="114.451" y1="6.10241" x2="136.255" y2="102.488" gradientUnits="userSpaceOnUse">
<stop offset="0.0369" stop-color="#F6C017"/>
<stop offset="1" stop-color="#F6C017" stop-opacity="0"/>
</linearGradient>
<linearGradient id="paint2_linear" x1="51.1282" y1="20.4271" x2="72.9327" y2="116.813" gradientUnits="userSpaceOnUse">
<stop offset="0.0369" stop-color="#F6C017"/>
<stop offset="1" stop-color="#F6C017" stop-opacity="0"/>
</linearGradient>
<linearGradient id="paint3_linear" x1="86.4013" y1="12.4477" x2="108.206" y2="108.834" gradientUnits="userSpaceOnUse">
<stop offset="0.0369" stop-color="#F6C017"/>
<stop offset="1" stop-color="#F6C017" stop-opacity="0"/>
</linearGradient>
<linearGradient id="paint4_linear" x1="82.8207" y1="13.2572" x2="104.625" y2="109.643" gradientUnits="userSpaceOnUse">
<stop offset="0.0369" stop-color="#F6C017"/>
<stop offset="1" stop-color="#F6C017" stop-opacity="0"/>
</linearGradient>
</defs>
</svg>
