<?xml version="1.0" encoding="utf-8"?>
<!-- Generator: Adobe Illustrator 24.3.0, SVG Export Plug-In . SVG Version: 6.00 Build 0)  -->
<svg version="1.1" id="Layer_1" xmlns="http://www.w3.org/2000/svg" xmlns:xlink="http://www.w3.org/1999/xlink" x="0px" y="0px"
	 viewBox="0 0 512 512" style="enable-background:new 0 0 512 512;" xml:space="preserve">
<style type="text/css">
	.st0{fill:#8BC8E8;}
	.st1{fill:#BAE5E5;}
	.st2{fill:#40DEED;}
	.st3{fill:#25BBCC;}
	.st4{fill:#48B1FF;}
	.st5{fill:#2386E8;}
	.st6{fill:#E06703;}
	.st7{filter:url(#Adobe_OpacityMaskFilter);}
	.st8{filter:url(#Adobe_OpacityMaskFilter_1_);}
	.st9{mask:url(#XMLID_2_);fill:url(#XMLID_3_);}
	.st10{fill:url(#XMLID_4_);}
	.st11{fill:#FFD81D;}
	.st12{filter:url(#Adobe_OpacityMaskFilter_2_);}
	.st13{filter:url(#Adobe_OpacityMaskFilter_3_);}
	.st14{mask:url(#XMLID_6_);fill:url(#XMLID_7_);}
	.st15{fill:url(#XMLID_8_);}
	.st16{filter:url(#Adobe_OpacityMaskFilter_4_);}
	.st17{filter:url(#Adobe_OpacityMaskFilter_5_);}
	.st18{mask:url(#XMLID_13_);fill:url(#XMLID_14_);}
	.st19{fill:url(#XMLID_15_);}
	.st20{fill:#F9B815;}
	.st21{filter:url(#Adobe_OpacityMaskFilter_6_);}
	.st22{filter:url(#Adobe_OpacityMaskFilter_7_);}
	.st23{mask:url(#XMLID_16_);fill:url(#XMLID_17_);}
	.st24{opacity:0.5;fill:url(#XMLID_18_);}
	.st25{fill:#DD7105;}
	.st26{filter:url(#Adobe_OpacityMaskFilter_8_);}
	.st27{filter:url(#Adobe_OpacityMaskFilter_9_);}
	.st28{mask:url(#XMLID_19_);fill:url(#XMLID_20_);}
	.st29{fill:url(#XMLID_21_);}
	.st30{filter:url(#Adobe_OpacityMaskFilter_10_);}
	.st31{filter:url(#Adobe_OpacityMaskFilter_11_);}
	.st32{mask:url(#XMLID_22_);fill:url(#XMLID_23_);}
	.st33{fill:url(#XMLID_24_);}
</style>
<path class="st0" d="M373.3,406.2c-3.6,0-7.2-1.3-10.1-3.9l-31.9-28.9c-6.2-5.6-6.6-15.1-1.1-21.3c5.6-6.2,15.1-6.6,21.3-1.1
	l31.9,28.9c6.2,5.6,6.6,15.1,1.1,21.3C381.5,404.5,377.4,406.2,373.3,406.2z"/>
<path class="st1" d="M170.1,206c-3.9,0-7.7-1.5-10.6-4.4l-31.8-31.8c-5.9-5.9-5.9-15.4,0-21.3s15.4-5.9,21.3,0l31.8,31.8
	c5.9,5.9,5.9,15.4,0,21.3C177.8,204.6,173.9,206,170.1,206z"/>
<path class="st1" d="M143.3,412.3c-3.7,0-7.5-1.4-10.4-4.2c-6-5.7-6.2-15.3-0.5-21.3l30.8-32.2c5.7-6,15.3-6.2,21.3-0.5
	c6,5.7,6.2,15.3,0.5,21.3l-30.7,32.2C151.2,410.8,147.2,412.3,143.3,412.3z"/>
<path class="st0" d="M342.2,205.8c-4,0-7.9-1.6-10.9-4.6c-5.7-6-5.5-15.5,0.5-21.3l32.1-30.7c6-5.7,15.5-5.5,21.3,0.5
	c5.7,6,5.5,15.5-0.5,21.3l-32.1,30.7C349.7,204.5,345.9,205.8,342.2,205.8z"/>
<path class="st2" d="M256.2,140C181.1,140,120,201,120,276.1c0,75.1,61.1,136.2,136.2,136.2c75.1,0,136.2-61.1,136.2-136.2
	C392.4,201,331.3,140,256.2,140z"/>
<path class="st3" d="M257.8,140v272.3c74.4-0.9,134.6-61.6,134.6-136.2S332.2,140.8,257.8,140z"/>
<path class="st4" d="M96.4,62.3c3.7-6.1,5.8-13.3,5.8-20.9C102.2,19.1,84.1,1,61.8,1S21.4,19.1,21.4,41.4c0,7.6,2.1,14.8,5.8,20.9
	C10.8,73.4,0,92.3,0,113.6v11.8c0,8.3,6.7,15,15,15h93.6c8.3,0,15-6.7,15-15v-11.8C123.7,92.3,112.8,73.4,96.4,62.3z"/>
<path class="st5" d="M96.4,62.3c3.7-6.1,5.8-13.3,5.8-20.9C102.2,19.1,84.1,1,61.8,1v139.4h46.8c8.3,0,15-6.7,15-15v-11.8
	C123.7,92.3,112.8,73.4,96.4,62.3z"/>
<path class="st4" d="M484.7,62.3c3.7-6.1,5.8-13.3,5.8-20.9c0-22.3-18.1-40.4-40.4-40.4s-40.4,18.1-40.4,40.4
	c0,7.6,2.1,14.8,5.8,20.9c-16.4,11.1-27.3,29.9-27.3,51.3v11.8c0,8.3,6.7,15,15,15H497c8.3,0,15-6.7,15-15v-11.8
	C512,92.3,501.2,73.4,484.7,62.3z"/>
<path class="st5" d="M484.7,62.3c3.7-6.1,5.8-13.3,5.8-20.9c0-22.3-18.1-40.4-40.4-40.4v139.4H497c8.3,0,15-6.7,15-15v-11.8
	C512,92.3,501.2,73.4,484.7,62.3z"/>
<path class="st4" d="M484.7,432.6c3.7-6.1,5.8-13.3,5.8-20.9c0-22.3-18.1-40.4-40.4-40.4s-40.4,18.1-40.4,40.4
	c0,7.6,2.1,14.8,5.8,20.9c-16.4,11.1-27.3,29.9-27.3,51.2v11.8c0,8.3,6.7,15,15,15H497c8.3,0,15-6.7,15-15v-11.8
	C512,462.5,501.2,443.7,484.7,432.6z"/>
<path class="st5" d="M484.7,432.6c3.7-6.1,5.8-13.3,5.8-20.9c0-22.3-18.1-40.4-40.4-40.4v139.4H497c8.3,0,15-6.7,15-15v-11.8
	C512,462.5,501.2,443.7,484.7,432.6z"/>
<path class="st4" d="M96.4,432.6c3.7-6.1,5.8-13.3,5.8-20.9c0-22.3-18.1-40.4-40.4-40.4s-40.4,18.1-40.4,40.4
	c0,7.6,2.1,14.8,5.8,20.9C10.8,443.7,0,462.5,0,483.8v11.8c0,8.3,6.7,15,15,15h93.6c8.3,0,15-6.7,15-15v-11.8
	C123.7,462.5,112.8,443.7,96.4,432.6z"/>
<path class="st5" d="M96.4,432.6c3.7-6.1,5.8-13.3,5.8-20.9c0-22.3-18.1-40.4-40.4-40.4v139.4h46.8c8.3,0,15-6.7,15-15v-11.8
	C123.7,462.5,112.8,443.7,96.4,432.6z"/>
<g id="XMLID_467_">
	<g id="XMLID_873_">
		<path id="XMLID_888_" class="st6" d="M351.5,261.6C337.4,237.4,300,220,256,220c-44,0-81.4,17.4-95.5,41.6h-6v21.1
			c0,34.6,45.4,62.7,101.5,62.7c56.1,0,101.5-28.1,101.5-62.7v-21.1H351.5z"/>
		<defs>
			<filter id="Adobe_OpacityMaskFilter" filterUnits="userSpaceOnUse" x="172.1" y="282.8" width="88.8" height="62.7">
				<feFlood  style="flood-color:white;flood-opacity:1" result="back"/>
				<feBlend  in="SourceGraphic" in2="back" mode="normal"/>
			</filter>
		</defs>
		<mask maskUnits="userSpaceOnUse" x="172.1" y="282.8" width="88.8" height="62.7" id="XMLID_2_">
			<g id="XMLID_56_" class="st7">
				<defs>
					<filter id="Adobe_OpacityMaskFilter_1_" filterUnits="userSpaceOnUse" x="172.1" y="282.8" width="88.8" height="62.7">
						<feFlood  style="flood-color:white;flood-opacity:1" result="back"/>
						<feBlend  in="SourceGraphic" in2="back" mode="normal"/>
					</filter>
				</defs>
				<mask maskUnits="userSpaceOnUse" x="172.1" y="282.8" width="88.8" height="62.7" id="XMLID_2_">
					<g id="XMLID_92_" class="st8">
					</g>
				</mask>
				<linearGradient id="XMLID_3_" gradientUnits="userSpaceOnUse" x1="-31.1749" y1="298.9716" x2="308.9575" y2="320.0945">
					<stop  offset="0" style="stop-color:#000000"/>
					<stop  offset="1" style="stop-color:#FFFFFF"/>
				</linearGradient>
				<path id="XMLID_59_" class="st9" d="M172.1,282.8V318c23.1,20.2,53.9,27.5,88.8,27.5v-21.1L172.1,282.8z"/>
			</g>
		</mask>
		<linearGradient id="XMLID_4_" gradientUnits="userSpaceOnUse" x1="-31.1749" y1="298.9716" x2="308.9575" y2="320.0945">
			<stop  offset="0" style="stop-color:#D10B57"/>
			<stop  offset="1" style="stop-color:#FFFFFF"/>
		</linearGradient>
		<path id="XMLID_887_" class="st10" d="M172.1,282.8V318c23.1,20.2,53.9,27.5,88.8,27.5v-21.1L172.1,282.8z"/>
		<ellipse id="XMLID_886_" class="st11" cx="256" cy="261.6" rx="101.5" ry="62.7"/>
		<defs>
			<filter id="Adobe_OpacityMaskFilter_2_" filterUnits="userSpaceOnUse" x="154.5" y="198.9" width="180.1" height="109.3">
				<feFlood  style="flood-color:white;flood-opacity:1" result="back"/>
				<feBlend  in="SourceGraphic" in2="back" mode="normal"/>
			</filter>
		</defs>
		<mask maskUnits="userSpaceOnUse" x="154.5" y="198.9" width="180.1" height="109.3" id="XMLID_6_">
			<g id="XMLID_48_" class="st12">
				<defs>
					<filter id="Adobe_OpacityMaskFilter_3_" filterUnits="userSpaceOnUse" x="154.5" y="198.9" width="180.1" height="109.3">
						<feFlood  style="flood-color:white;flood-opacity:1" result="back"/>
						<feBlend  in="SourceGraphic" in2="back" mode="normal"/>
					</filter>
				</defs>
				<mask maskUnits="userSpaceOnUse" x="154.5" y="198.9" width="180.1" height="109.3" id="XMLID_6_">
					<g id="XMLID_87_" class="st13">
					</g>
				</mask>
				<linearGradient id="XMLID_7_" gradientUnits="userSpaceOnUse" x1="-61.7526" y1="435.0842" x2="255.4057" y2="234.9359">
					<stop  offset="0" style="stop-color:#000000"/>
					<stop  offset="1" style="stop-color:#FFFFFF"/>
				</linearGradient>
				<path id="XMLID_52_" class="st14" d="M188.2,308.2L334.6,222c-18.6-14-46.7-23-78.4-23.1l-101.8,62.7
					C154.5,280.1,167.6,296.7,188.2,308.2z"/>
			</g>
		</mask>
		<linearGradient id="XMLID_8_" gradientUnits="userSpaceOnUse" x1="-61.7526" y1="435.0842" x2="255.4057" y2="234.9359">
			<stop  offset="0" style="stop-color:#D10B57"/>
			<stop  offset="1" style="stop-color:#FFFFFF"/>
		</linearGradient>
		<path id="XMLID_885_" class="st15" d="M188.2,308.2L334.6,222c-18.6-14-46.7-23-78.4-23.1l-101.8,62.7
			C154.5,280.1,167.6,296.7,188.2,308.2z"/>
		<defs>
			<filter id="Adobe_OpacityMaskFilter_4_" filterUnits="userSpaceOnUse" x="223.5" y="244.8" width="134" height="79.5">
				<feFlood  style="flood-color:white;flood-opacity:1" result="back"/>
				<feBlend  in="SourceGraphic" in2="back" mode="normal"/>
			</filter>
		</defs>
		<mask maskUnits="userSpaceOnUse" x="223.5" y="244.8" width="134" height="79.5" id="XMLID_13_">
			<g id="XMLID_42_" class="st16">
				<defs>
					<filter id="Adobe_OpacityMaskFilter_5_" filterUnits="userSpaceOnUse" x="223.5" y="244.8" width="134" height="79.5">
						<feFlood  style="flood-color:white;flood-opacity:1" result="back"/>
						<feBlend  in="SourceGraphic" in2="back" mode="normal"/>
					</filter>
				</defs>
				<mask maskUnits="userSpaceOnUse" x="223.5" y="244.8" width="134" height="79.5" id="XMLID_13_">
					<g id="XMLID_82_" class="st17">
					</g>
				</mask>
				<linearGradient id="XMLID_14_" gradientUnits="userSpaceOnUse" x1="113.478" y1="448.8936" x2="285.9136" y2="298.0125">
					<stop  offset="0" style="stop-color:#000000"/>
					<stop  offset="1" style="stop-color:#FFFFFF"/>
				</linearGradient>
				<path id="XMLID_45_" class="st18" d="M256,324.3c1.6,0,3.1-0.1,4.6-0.1l96.4-56.8c0.3-1.9,0.5-3.9,0.5-5.8
					c0-5.8-1.4-11.4-3.8-16.8c-44.1,25.8-93.7,54.8-130.2,76.2C233.7,323.1,244.6,324.3,256,324.3z"/>
			</g>
		</mask>
		<linearGradient id="XMLID_15_" gradientUnits="userSpaceOnUse" x1="113.478" y1="448.8936" x2="285.9136" y2="298.0125">
			<stop  offset="0" style="stop-color:#D10B57"/>
			<stop  offset="1" style="stop-color:#FFFFFF"/>
		</linearGradient>
		<path id="XMLID_884_" class="st19" d="M256,324.3c1.6,0,3.1-0.1,4.6-0.1l96.4-56.8c0.3-1.9,0.5-3.9,0.5-5.8
			c0-5.8-1.4-11.4-3.8-16.8c-44.1,25.8-93.7,54.8-130.2,76.2C233.7,323.1,244.6,324.3,256,324.3z"/>
		<ellipse id="XMLID_883_" class="st20" cx="256" cy="258.8" rx="81.1" ry="47.2"/>
		<defs>
			<filter id="Adobe_OpacityMaskFilter_6_" filterUnits="userSpaceOnUse" x="179.6" y="217.9" width="155.9" height="87.3">
				<feFlood  style="flood-color:white;flood-opacity:1" result="back"/>
				<feBlend  in="SourceGraphic" in2="back" mode="normal"/>
			</filter>
		</defs>
		<mask maskUnits="userSpaceOnUse" x="179.6" y="217.9" width="155.9" height="87.3" id="XMLID_16_">
			<g id="XMLID_36_" class="st21">
				<defs>
					<filter id="Adobe_OpacityMaskFilter_7_" filterUnits="userSpaceOnUse" x="179.6" y="217.9" width="155.9" height="87.3">
						<feFlood  style="flood-color:white;flood-opacity:1" result="back"/>
						<feBlend  in="SourceGraphic" in2="back" mode="normal"/>
					</filter>
				</defs>
				<mask maskUnits="userSpaceOnUse" x="179.6" y="217.9" width="155.9" height="87.3" id="XMLID_16_">
					<g id="XMLID_77_" class="st22">
					</g>
				</mask>
				<linearGradient id="XMLID_17_" gradientUnits="userSpaceOnUse" x1="27.4434" y1="407.1678" x2="304.2613" y2="232.4769">
					<stop  offset="0" style="stop-color:#000000"/>
					<stop  offset="1" style="stop-color:#FFFFFF"/>
				</linearGradient>
				<path id="XMLID_38_" class="st23" d="M240.6,305.3l94.9-55.9c-4-11.2-14.8-20.9-29.8-27.7c-10.7-2.4-22.2-3.7-34.3-3.7
					l-91.8,56.6C189,290.2,212.1,302.1,240.6,305.3z"/>
			</g>
		</mask>
		<linearGradient id="XMLID_18_" gradientUnits="userSpaceOnUse" x1="27.4434" y1="407.1678" x2="304.2613" y2="232.4769">
			<stop  offset="0" style="stop-color:#D10B57"/>
			<stop  offset="1" style="stop-color:#FFFFFF"/>
		</linearGradient>
		<path id="XMLID_880_" class="st24" d="M240.6,305.3l94.9-55.9c-4-11.2-14.8-20.9-29.8-27.7c-10.7-2.4-22.2-3.7-34.3-3.7
			l-91.8,56.6C189,290.2,212.1,302.1,240.6,305.3z"/>
		<path id="XMLID_876_" class="st25" d="M256,211.6c-44.8,0-81.1,21.1-81.1,47.2c0,2.3,0.4,4.6,1,6.9c5.7-22.8,39.4-40.3,80.1-40.3
			c40.7,0,74.4,17.5,80.1,40.3c0.6-2.2,1-4.5,1-6.9C337.1,232.7,300.8,211.6,256,211.6z"/>
		<defs>
			<filter id="Adobe_OpacityMaskFilter_8_" filterUnits="userSpaceOnUse" x="232.4" y="211.6" width="88" height="32.3">
				<feFlood  style="flood-color:white;flood-opacity:1" result="back"/>
				<feBlend  in="SourceGraphic" in2="back" mode="normal"/>
			</filter>
		</defs>
		<mask maskUnits="userSpaceOnUse" x="232.4" y="211.6" width="88" height="32.3" id="XMLID_19_">
			<g id="XMLID_29_" class="st26">
				<defs>
					<filter id="Adobe_OpacityMaskFilter_9_" filterUnits="userSpaceOnUse" x="232.4" y="211.6" width="88" height="32.3">
						<feFlood  style="flood-color:white;flood-opacity:1" result="back"/>
						<feBlend  in="SourceGraphic" in2="back" mode="normal"/>
					</filter>
				</defs>
				<mask maskUnits="userSpaceOnUse" x="232.4" y="211.6" width="88" height="32.3" id="XMLID_19_">
					<g id="XMLID_72_" class="st27">
					</g>
				</mask>
				<linearGradient id="XMLID_20_" gradientUnits="userSpaceOnUse" x1="182.1367" y1="288.2733" x2="310.8853" y2="207.0243">
					<stop  offset="0" style="stop-color:#000000"/>
					<stop  offset="1" style="stop-color:#FFFFFF"/>
				</linearGradient>
				<path id="XMLID_32_" class="st28" d="M256.1,211.6c-8.2,0-16.2,0.7-23.7,2.1v13.8c7.5-1.3,15.4-2.1,23.7-2.1
					c26.2,0,49.5,7.3,64.2,18.5l0,0v-13.8C305.6,218.9,282.4,211.6,256.1,211.6z"/>
			</g>
		</mask>
		<linearGradient id="XMLID_21_" gradientUnits="userSpaceOnUse" x1="182.1367" y1="288.2733" x2="310.8853" y2="207.0243">
			<stop  offset="0" style="stop-color:#D10B57"/>
			<stop  offset="1" style="stop-color:#FFFFFF"/>
		</linearGradient>
		<path id="XMLID_875_" class="st29" d="M256.1,211.6c-8.2,0-16.2,0.7-23.7,2.1v13.8c7.5-1.3,15.4-2.1,23.7-2.1
			c26.2,0,49.5,7.3,64.2,18.5l0,0v-13.8C305.6,218.9,282.4,211.6,256.1,211.6z"/>
	</g>
	<g id="XMLID_469_">
		<path id="XMLID_505_" class="st6" d="M300.9,284.7c3.1-3.1,4.7-6.2,4.9-9.3c0,0,0.2,0.1,0.2,0.1v-9l-6.2-2.5
			c-1.2-1-2.7-1.9-4.3-2.8c-5.7-3.2-11.8-4.9-18.5-5.1c-6.6-0.2-15.2,1.5-25.8,5.1l-20.6-11.5c4.8-1.2,9.7-0.8,14.6,1l11.3-8.8v-8.3
			l-14.5,5l0.1,0.1c-1.4-0.1-2.9-0.1-4.4-0.1c-6.4,0.2-12.6,1.7-18.8,4.6l-2.7-1.5l1-0.8v-3.9l-11-0.6v13.1l3.6-2.8l1.6,0.9
			c-1.7,1.2-3,2.5-4.1,3.8c-1.9-0.6-3.4-1.1-3.4-1.1l0,9.6c0.4,4.3,3.4,8.1,9.2,11.3c5.7,3.2,12.1,4.9,19.2,5.3
			c7.1,0.3,15.1-0.9,23.8-3.9l22.1,12.3c-2.8,0.6-5.9,0.8-9.5,0.6c-2.3-0.1-4.5-0.6-6.6-1.1l0.5-1.8l-16.3,1.3v8.3
			c7.9,3.2,15.7,4.8,23.2,4.7c7.5-0.1,14.6-1.7,21.3-4.9l9.6,5.3l7.5-4.5v-8.3L300.9,284.7z M232.3,264.9c-2.7-0.2-5-0.9-6.8-1.9
			c-2-1.1-3.3-2.5-3.8-4.2c-0.5-1.7-0.1-3.3,1.3-4.9l18.2,10.2C238,264.8,235,265.1,232.3,264.9z M286.5,280.7L266,269.2
			c4-1.3,7.5-1.9,10.6-1.8c3.1,0.1,5.8,0.9,8.1,2.2c2.6,1.5,4.1,3.2,4.4,5.3C289.5,276.9,288.6,278.9,286.5,280.7z"/>
		<g id="XMLID_878_">
			<path id="XMLID_500_" class="st11" d="M278.3,276.4l-22.1-12.3c-8.7,2.9-16.6,4.2-23.8,3.9c-7.1-0.3-13.5-2.1-19.2-5.3
				c-5.8-3.2-8.8-7-9.2-11.3c-0.3-4.3,2.1-8.4,7.5-12.3l-5.2-2.9l7.5-4.5l5.2,2.9c6.1-2.9,12.4-4.4,18.8-4.6
				c6.4-0.2,12.6,0.9,18.8,3.3l-11.3,8.8c-4.9-1.8-9.8-2.2-14.6-1l20.6,11.5c10.5-3.7,19.1-5.4,25.8-5.1c6.6,0.2,12.8,1.9,18.5,5.1
				c6.4,3.5,9.8,7.7,10.4,12.3c0.6,4.7-2,9.3-7.7,13.8l9.8,5.5l-7.5,4.5l-9.6-5.3c-6.7,3.1-13.8,4.8-21.3,4.9
				c-7.5,0.1-15.2-1.5-23.2-4.7l12-8.9c3.4,1.2,6.8,2,10.4,2.2C272.3,277.2,275.5,277,278.3,276.4z M223,245.5
				c-1.3,1.6-1.8,3.2-1.3,4.9c0.5,1.7,1.7,3.1,3.8,4.2c1.9,1,4.1,1.7,6.8,1.9c2.7,0.2,5.7,0,8.9-0.8L223,245.5z M286.5,272.4
				c2.1-1.8,3-3.7,2.6-5.8c-0.3-2.1-1.8-3.8-4.4-5.3c-2.4-1.3-5.1-2-8.1-2.2c-3.1-0.1-6.6,0.5-10.6,1.8L286.5,272.4z"/>
		</g>
		<g id="XMLID_487_">
			<defs>
				<filter id="Adobe_OpacityMaskFilter_10_" filterUnits="userSpaceOnUse" x="204" y="230.1" width="103.9" height="58.8">
					<feFlood  style="flood-color:white;flood-opacity:1" result="back"/>
					<feBlend  in="SourceGraphic" in2="back" mode="normal"/>
				</filter>
			</defs>
			<mask maskUnits="userSpaceOnUse" x="204" y="230.1" width="103.9" height="58.8" id="XMLID_22_">
				<g id="XMLID_5_" class="st30">
					<defs>
						<filter id="Adobe_OpacityMaskFilter_11_" filterUnits="userSpaceOnUse" x="204" y="230.1" width="103.9" height="58.8">
							<feFlood  style="flood-color:white;flood-opacity:1" result="back"/>
							<feBlend  in="SourceGraphic" in2="back" mode="normal"/>
						</filter>
					</defs>
					<mask maskUnits="userSpaceOnUse" x="204" y="230.1" width="103.9" height="58.8" id="XMLID_22_">
						<g id="XMLID_64_" class="st31">
						</g>
					</mask>
					<linearGradient id="XMLID_23_" gradientUnits="userSpaceOnUse" x1="175.3659" y1="354.1564" x2="248.2407" y2="270.5045">
						<stop  offset="0" style="stop-color:#000000"/>
						<stop  offset="1" style="stop-color:#FFFFFF"/>
					</linearGradient>
					<path id="XMLID_9_" class="st32" d="M278.3,276.4l-22.1-12.3c-8.7,2.9-16.6,4.2-23.8,3.9c-7.1-0.3-13.5-2.1-19.2-5.3
						c-5.8-3.2-8.8-7-9.2-11.3c-0.3-4.3,2.1-8.4,7.5-12.3l-5.2-2.9l7.5-4.5l5.2,2.9c6.1-2.9,12.4-4.4,18.8-4.6
						c6.4-0.2,12.6,0.9,18.8,3.3l-11.3,8.8c-4.9-1.8-9.8-2.2-14.6-1l20.6,11.5c10.5-3.7,19.1-5.4,25.8-5.1
						c6.6,0.2,12.8,1.9,18.5,5.1c6.4,3.5,9.8,7.7,10.4,12.3c0.6,4.7-2,9.3-7.7,13.8l9.8,5.5l-7.5,4.5l-9.6-5.3
						c-6.7,3.1-13.8,4.8-21.3,4.9c-7.5,0.1-15.2-1.5-23.2-4.7l12-8.9c3.4,1.2,6.8,2,10.4,2.2C272.3,277.2,275.5,277,278.3,276.4z
						 M223,245.5c-1.3,1.6-1.8,3.2-1.3,4.9c0.5,1.7,1.7,3.1,3.8,4.2c1.9,1,4.1,1.7,6.8,1.9c2.7,0.2,5.7,0,8.9-0.8L223,245.5z
						 M286.5,272.4c2.1-1.8,3-3.7,2.6-5.8c-0.3-2.1-1.8-3.8-4.4-5.3c-2.4-1.3-5.1-2-8.1-2.2c-3.1-0.1-6.6,0.5-10.6,1.8L286.5,272.4z
						"/>
				</g>
			</mask>
			<linearGradient id="XMLID_24_" gradientUnits="userSpaceOnUse" x1="175.3659" y1="354.1564" x2="248.2407" y2="270.5045">
				<stop  offset="0" style="stop-color:#D10B57"/>
				<stop  offset="1" style="stop-color:#FFFFFF"/>
			</linearGradient>
			<path id="XMLID_488_" class="st33" d="M278.3,276.4l-22.1-12.3c-8.7,2.9-16.6,4.2-23.8,3.9c-7.1-0.3-13.5-2.1-19.2-5.3
				c-5.8-3.2-8.8-7-9.2-11.3c-0.3-4.3,2.1-8.4,7.5-12.3l-5.2-2.9l7.5-4.5l5.2,2.9c6.1-2.9,12.4-4.4,18.8-4.6
				c6.4-0.2,12.6,0.9,18.8,3.3l-11.3,8.8c-4.9-1.8-9.8-2.2-14.6-1l20.6,11.5c10.5-3.7,19.1-5.4,25.8-5.1c6.6,0.2,12.8,1.9,18.5,5.1
				c6.4,3.5,9.8,7.7,10.4,12.3c0.6,4.7-2,9.3-7.7,13.8l9.8,5.5l-7.5,4.5l-9.6-5.3c-6.7,3.1-13.8,4.8-21.3,4.9
				c-7.5,0.1-15.2-1.5-23.2-4.7l12-8.9c3.4,1.2,6.8,2,10.4,2.2C272.3,277.2,275.5,277,278.3,276.4z M223,245.5
				c-1.3,1.6-1.8,3.2-1.3,4.9c0.5,1.7,1.7,3.1,3.8,4.2c1.9,1,4.1,1.7,6.8,1.9c2.7,0.2,5.7,0,8.9-0.8L223,245.5z M286.5,272.4
				c2.1-1.8,3-3.7,2.6-5.8c-0.3-2.1-1.8-3.8-4.4-5.3c-2.4-1.3-5.1-2-8.1-2.2c-3.1-0.1-6.6,0.5-10.6,1.8L286.5,272.4z"/>
		</g>
	</g>
</g>
</svg>
